<?xml version="1.0" encoding="utf-8"?><svg xmlns="http://www.w3.org/2000/svg" xmlns:xlink="http://www.w3.org/1999/xlink" width="1440" height="732" preserveAspectRatio="xMidYMid" viewBox="0 0 1440 732" style="z-index:1;margin-right:-2px;display:block;background-repeat-y:initial;background-repeat-x:initial;background-color:rgb(255, 255, 255);animation-play-state:paused" ><g transform="translate(720,366) scale(1,1) translate(-720,-366)" style="transform:matrix(1, 0, 0, 1, 0, 0);animation-play-state:paused" ><defs style="animation-play-state:paused" ><linearGradient id="ldbk-photon-p0dpmbvle-lg" x1="0" x2="0" y1="0" y2="391" gradientUnits="userSpaceOnUse" style="animation-play-state:paused" ><stop stop-color="#34d399" offset="0" style="animation-play-state:paused" ></stop>

    
<stop stop-color="#34d399" offset="1" style="animation-play-state:paused" ></stop></linearGradient>

  
<mask id="ldbk-photon-p0dpmbvle-mask" style="animation-play-state:paused" ><g style="animation-play-state:paused" ><path d="M-0.5 -300 L-0.5 416.948626562292 A15 15 0 0 0 30.5 416.948626562292 L30.5 -300" fill="#fff" transform="matrix(1,0,0,1,0,0)" style="transform:matrix(1, 0, 0, 1, 0, 0);animation-play-state:paused" ></path>
<path d="M-0.5 365.4933893936273 L-0.5 386.948626562292 A15 15 0 0 0 30.5 386.948626562292 L30.5 365.4933893936273 A15 15 0 0 0 -0.5 365.4933893936273" fill="#fff" transform="matrix(1,0,0,1,0,0)" opacity="1" style="transform:matrix(1, 0, 0, 1, 0, 0);animation-play-state:paused" ></path>
<path d="M29.5 -300 L29.5 363.895356623407 A15 15 0 0 1 60.5 363.895356623407 L60.5 -300" fill="#fff" transform="matrix(1,0,0,1,0,-1.0478001832962036)" style="transform:matrix(1, 0, 0, 1, 0, -1.0478);animation-play-state:paused" ></path>
<path d="M29.5 -63.677881791833485 L29.5 -30 A15 15 0 0 0 60.5 -30 L60.5 -63.677881791833485 A15 15 0 0 0 29.5 -63.677881791833485" fill="#000" transform="matrix(1,0,0,1,0,0)" opacity="1" style="transform:matrix(1, 0, 0, 1, 0, 0);animation-play-state:paused" ></path>
<path d="M59.5 -300 L59.5 397.3679037847999 A15 15 0 0 0 90.5 397.3679037847999 L90.5 -300" fill="#fff" transform="matrix(1,0,0,1,0,40.429443359375)" style="transform:matrix(1, 0, 0, 1, 0, 40.4294);animation-play-state:paused" ></path>
<path d="M59.5 329.33316109484906 L59.5 367.3679037847999 A15 15 0 0 0 90.5 367.3679037847999 L90.5 329.33316109484906 A15 15 0 0 0 59.5 329.33316109484906" fill="#fff" transform="matrix(1,0,0,1,0,109.20783996582031)" opacity="1" style="transform:matrix(1, 0, 0, 1, 0, 109.208);animation-play-state:paused" ></path>
<path d="M89.5 -300 L89.5 387.8434645543975 A15 15 0 0 1 120.5 387.8434645543975 L120.5 -300" fill="#fff" transform="matrix(1,0,0,1,0,-41.29115295410156)" style="transform:matrix(1, 0, 0, 1, 0, -41.2912);animation-play-state:paused" ></path>
<path d="M89.5 -51.89286655278418 L89.5 -30 A15 15 0 0 0 120.5 -30 L120.5 -51.89286655278418 A15 15 0 0 0 89.5 -51.89286655278418" fill="#000" transform="matrix(1,0,0,1,0,0)" opacity="1" style="transform:matrix(1, 0, 0, 1, 0, 0);animation-play-state:paused" ></path>
<path d="M119.5 -300 L119.5 423.05999333972596 A15 15 0 0 0 150.5 423.05999333972596 L150.5 -300" fill="#fff" transform="matrix(1,0,0,1,0,17.778472900390625)" style="transform:matrix(1, 0, 0, 1, 0, 17.7785);animation-play-state:paused" ></path>
<path d="M119.5 377.1562596554838 L119.5 393.05999333972596 A15 15 0 0 0 150.5 393.05999333972596 L150.5 377.1562596554838 A15 15 0 0 0 119.5 377.1562596554838" fill="#fff" transform="matrix(1,0,0,1,0,225.82394409179688)" opacity="1" style="transform:matrix(1, 0, 0, 1, 0, 225.824);animation-play-state:paused" ></path>
<path d="M149.5 -300 L149.5 407.3131790473832 A15 15 0 0 1 180.5 407.3131790473832 L180.5 -300" fill="#fff" transform="matrix(1,0,0,1,0,-35.62788009643555)" style="transform:matrix(1, 0, 0, 1, 0, -35.6279);animation-play-state:paused" ></path>
<path d="M149.5 -50.77863749424458 L149.5 -30 A15 15 0 0 0 180.5 -30 L180.5 -50.77863749424458 A15 15 0 0 0 149.5 -50.77863749424458" fill="#000" transform="matrix(1,0,0,1,0,0)" opacity="0.0892856" style="transform:matrix(1, 0, 0, 1, 0, 0);opacity:0.0892856;animation-play-state:paused" ></path>
<path d="M179.5 -300 L179.5 431.6795607116866 A15 15 0 0 0 210.5 431.6795607116866 L210.5 -300" fill="#fff" transform="matrix(1,0,0,1,0,28.13134765625)" style="transform:matrix(1, 0, 0, 1, 0, 28.1313);animation-play-state:paused" ></path>
<path d="M179.5 369.0921674185606 L179.5 401.6795607116866 A15 15 0 0 0 210.5 401.6795607116866 L210.5 369.0921674185606 A15 15 0 0 0 179.5 369.0921674185606" fill="#fff" transform="matrix(1,0,0,1,0,484.8820495605469)" opacity="0.357143" style="transform:matrix(1, 0, 0, 1, 0, 484.882);opacity:0.357143;animation-play-state:paused" ></path>
<path d="M209.5 -300 L209.5 407.4161323244295 A15 15 0 0 1 240.5 407.4161323244295 L240.5 -300" fill="#fff" transform="matrix(1,0,0,1,0,-3.0161209106445312)" style="transform:matrix(1, 0, 0, 1, 0, -3.01612);animation-play-state:paused" ></path>
<path d="M209.5 -62.33978355168141 L209.5 -30 A15 15 0 0 0 240.5 -30 L240.5 -62.33978355168141 A15 15 0 0 0 209.5 -62.33978355168141" fill="#000" transform="matrix(1,0,0,1,0,0)" opacity="0.982143" style="transform:matrix(1, 0, 0, 1, 0, 0);opacity:0.982143;animation-play-state:paused" ></path>
<path d="M239.5 -300 L239.5 447.837352449522 A15 15 0 0 0 270.5 447.837352449522 L270.5 -300" fill="#fff" transform="matrix(1,0,0,1,0,0)" style="transform:matrix(1, 0, 0, 1, 0, 0);animation-play-state:paused" ></path>
<path d="M239.5 404.20440879831256 L239.5 417.837352449522 A15 15 0 0 0 270.5 417.837352449522 L270.5 404.20440879831256 A15 15 0 0 0 239.5 404.20440879831256" fill="#fff" transform="matrix(1,0,0,1,0,368.2012939453125)" opacity="0.714286" style="transform:matrix(1, 0, 0, 1, 0, 368.201);opacity:0.714286;animation-play-state:paused" ></path>
<path d="M269.5 -300 L269.5 395.5373132694017 A15 15 0 0 1 300.5 395.5373132694017 L300.5 -300" fill="#fff" transform="matrix(1,0,0,1,0,-35.156612396240234)" style="transform:matrix(1, 0, 0, 1, 0, -35.1566);animation-play-state:paused" ></path>
<path d="M269.5 -54.78675565275424 L269.5 -30.000000000000004 A15 15 0 0 0 300.5 -30.000000000000004 L300.5 -54.78675565275424 A15 15 0 0 0 269.5 -54.78675565275424" fill="#000" transform="matrix(1,0,0,1,0,0)" opacity="0.446428" style="transform:matrix(1, 0, 0, 1, 0, 0);opacity:0.446428;animation-play-state:paused" ></path>
<path d="M299.5 -300 L299.5 463.83327424528227 A15 15 0 0 0 330.5 463.83327424528227 L330.5 -300" fill="#fff" transform="matrix(1,0,0,1,0,13.977812767028809)" style="transform:matrix(1, 0, 0, 1, 0, 13.9778);animation-play-state:paused" ></path>
<path d="M299.5 412.4815930181915 L299.5 433.83327424528227 A15 15 0 0 0 330.5 433.83327424528227 L330.5 412.4815930181915 A15 15 0 0 0 299.5 412.4815930181915" fill="#fff" transform="matrix(1,0,0,1,0,778.6516723632812)" opacity="0.178571" style="transform:matrix(1, 0, 0, 1, 0, 778.652);opacity:0.178571;animation-play-state:paused" ></path>
<path d="M329.5 -300 L329.5 435.86853376767965 A15 15 0 0 1 360.5 435.86853376767965 L360.5 -300" fill="#fff" transform="matrix(1,0,0,1,0,-32.15040588378906)" style="transform:matrix(1, 0, 0, 1, 0, -32.1504);animation-play-state:paused" ></path>
<path d="M329.5 -66.25511785373953 L329.5 -30 A15 15 0 0 0 360.5 -30 L360.5 -66.25511785373953 A15 15 0 0 0 329.5 -66.25511785373953" fill="#000" transform="matrix(1,0,0,1,0,0)" opacity="0.892857" style="transform:matrix(1, 0, 0, 1, 0, 0);opacity:0.892857;animation-play-state:paused" ></path>
<path d="M359.5 -300 L359.5 442.27990491777814 A15 15 0 0 0 390.5 442.27990491777814 L390.5 -300" fill="#fff" transform="matrix(1,0,0,1,0,12.833405494689941)" style="transform:matrix(1, 0, 0, 1, 0, 12.8334);animation-play-state:paused" ></path>
<path d="M359.5 385.7566846838173 L359.5 412.27990491777814 A15 15 0 0 0 390.5 412.27990491777814 L390.5 385.7566846838173 A15 15 0 0 0 359.5 385.7566846838173" fill="#fff" transform="matrix(1,0,0,1,0,603.9969482421875)" opacity="0.357143" style="transform:matrix(1, 0, 0, 1, 0, 603.997);opacity:0.357143;animation-play-state:paused" ></path>
<path d="M389.5 -300 L389.5 421.1068899940733 A15 15 0 0 1 420.5 421.1068899940733 L420.5 -300" fill="#fff" transform="matrix(1,0,0,1,0,-41.81319808959961)" style="transform:matrix(1, 0, 0, 1, 0, -41.8132);animation-play-state:paused" ></path>
<path d="M389.5 -45.075535807588686 L389.5 -30 A15 15 0 0 0 420.5 -30 L420.5 -45.075535807588686 A15 15 0 0 0 389.5 -45.075535807588686" fill="#000" transform="matrix(1,0,0,1,0,0)" opacity="0.267857" style="transform:matrix(1, 0, 0, 1, 0, 0);opacity:0.267857;animation-play-state:paused" ></path>
<path d="M419.5 -300 L419.5 450.68281020835235 A15 15 0 0 0 450.5 450.68281020835235 L450.5 -300" fill="#fff" transform="matrix(1,0,0,1,0,20.080490112304688)" style="transform:matrix(1, 0, 0, 1, 0, 20.0805);animation-play-state:paused" ></path>
<path d="M419.5 392.6407692135322 L419.5 420.68281020835235 A15 15 0 0 0 450.5 420.68281020835235 L450.5 392.6407692135322 A15 15 0 0 0 419.5 392.6407692135322" fill="#fff" transform="matrix(1,0,0,1,0,431.9823913574219)" opacity="0.535714" style="transform:matrix(1, 0, 0, 1, 0, 431.982);opacity:0.535714;animation-play-state:paused" ></path>
<path d="M449.5 -300 L449.5 392.62440254338816 A15 15 0 0 1 480.5 392.62440254338816 L480.5 -300" fill="#fff" transform="matrix(1,0,0,1,0,-3.8400001525878906)" style="transform:matrix(1, 0, 0, 1, 0, -3.84);animation-play-state:paused" ></path>
<path d="M449.5 -55.26116008395037 L449.5 -30 A15 15 0 0 0 480.5 -30 L480.5 -55.26116008395037 A15 15 0 0 0 449.5 -55.26116008395037" fill="#000" transform="matrix(1,0,0,1,0,0)" opacity="0.178571" style="transform:matrix(1, 0, 0, 1, 0, 0);opacity:0.178571;animation-play-state:paused" ></path>
<path d="M479.5 -300 L479.5 454.34786941678414 A15 15 0 0 0 510.5 454.34786941678414 L510.5 -300" fill="#fff" transform="matrix(1,0,0,1,0,0)" style="transform:matrix(1, 0, 0, 1, 0, 0);animation-play-state:paused" ></path>
<path d="M479.5 413.41473033796615 L479.5 424.34786941678414 A15 15 0 0 0 510.5 424.34786941678414 L510.5 413.41473033796615 A15 15 0 0 0 479.5 413.41473033796615" fill="#fff" transform="matrix(1,0,0,1,0,0)" opacity="1" style="transform:matrix(1, 0, 0, 1, 0, 0);animation-play-state:paused" ></path>
<path d="M509.5 -300 L509.5 395.3005360101452 A15 15 0 0 1 540.5 395.3005360101452 L540.5 -300" fill="#fff" transform="matrix(1,0,0,1,0,-7.992633819580078)" style="transform:matrix(1, 0, 0, 1, 0, -7.99263);animation-play-state:paused" ></path>
<path d="M509.5 -50.08964983374031 L509.5 -29.999999999999996 A15 15 0 0 0 540.5 -29.999999999999996 L540.5 -50.08964983374031 A15 15 0 0 0 509.5 -50.08964983374031" fill="#000" transform="matrix(1,0,0,1,0,0)" opacity="1" style="transform:matrix(1, 0, 0, 1, 0, 0);animation-play-state:paused" ></path>
<path d="M539.5 -300 L539.5 423.8946105113805 A15 15 0 0 0 570.5 423.8946105113805 L570.5 -300" fill="#fff" transform="matrix(1,0,0,1,0,16.375364303588867)" style="transform:matrix(1, 0, 0, 1, 0, 16.3754);animation-play-state:paused" ></path>
<path d="M539.5 356.6922640728394 L539.5 393.8946105113805 A15 15 0 0 0 570.5 393.8946105113805 L570.5 356.6922640728394 A15 15 0 0 0 539.5 356.6922640728394" fill="#fff" transform="matrix(1,0,0,1,0,261.6696472167969)" opacity="0.892857" style="transform:matrix(1, 0, 0, 1, 0, 261.67);opacity:0.892857;animation-play-state:paused" ></path>
<path d="M569.5 -300 L569.5 376.2087180258055 A15 15 0 0 1 600.5 376.2087180258055 L600.5 -300" fill="#fff" transform="matrix(1,0,0,1,0,-32.2315788269043)" style="transform:matrix(1, 0, 0, 1, 0, -32.2316);animation-play-state:paused" ></path>
<path d="M569.5 -52.93565062967849 L569.5 -29.999999999999996 A15 15 0 0 0 600.5 -29.999999999999996 L600.5 -52.93565062967849 A15 15 0 0 0 569.5 -52.93565062967849" fill="#000" transform="matrix(1,0,0,1,0,0)" opacity="0.625" style="transform:matrix(1, 0, 0, 1, 0, 0);opacity:0.625;animation-play-state:paused" ></path>
<path d="M599.5 -300 L599.5 430.5732455954242 A15 15 0 0 0 630.5 430.5732455954242 L630.5 -300" fill="#fff" transform="matrix(1,0,0,1,0,21.333251953125)" style="transform:matrix(1, 0, 0, 1, 0, 21.3333);animation-play-state:paused" ></path>
<path d="M599.5 369.56348220178114 L599.5 400.5732455954242 A15 15 0 0 0 630.5 400.5732455954242 L630.5 369.56348220178114 A15 15 0 0 0 599.5 369.56348220178114" fill="#fff" transform="matrix(1,0,0,1,0,411.02838134765625)" opacity="0.714286" style="transform:matrix(1, 0, 0, 1, 0, 411.028);opacity:0.714286;animation-play-state:paused" ></path>
<path d="M629.5 -300 L629.5 379.3469742935999 A15 15 0 0 1 660.5 379.3469742935999 L660.5 -300" fill="#fff" transform="matrix(1,0,0,1,0,-32.61941146850586)" style="transform:matrix(1, 0, 0, 1, 0, -32.6194);animation-play-state:paused" ></path>
<path d="M629.5 -41.31634432227868 L629.5 -29.999999999999996 A15 15 0 0 0 660.5 -29.999999999999996 L660.5 -41.31634432227868 A15 15 0 0 0 629.5 -41.31634432227868" fill="#000" transform="matrix(1,0,0,1,0,0)" opacity="0.0892851" style="transform:matrix(1, 0, 0, 1, 0, 0);opacity:0.0892851;animation-play-state:paused" ></path>
<path d="M659.5 -300 L659.5 399.4775404717193 A15 15 0 0 0 690.5 399.4775404717193 L690.5 -300" fill="#fff" transform="matrix(1,0,0,1,0,41.72185134887695)" style="transform:matrix(1, 0, 0, 1, 0, 41.7219);animation-play-state:paused" ></path>
<path d="M659.5 344.06180433514385 L659.5 369.4775404717193 A15 15 0 0 0 690.5 369.4775404717193 L690.5 344.06180433514385 A15 15 0 0 0 659.5 344.06180433514385" fill="#fff" transform="matrix(1,0,0,1,0,450.90478515625)" opacity="0.357143" style="transform:matrix(1, 0, 0, 1, 0, 450.905);opacity:0.357143;animation-play-state:paused" ></path>
<path d="M689.5 -300 L689.5 389.05713923542044 A15 15 0 0 1 720.5 389.05713923542044 L720.5 -300" fill="#fff" transform="matrix(1,0,0,1,0,-3.971820831298828)" style="transform:matrix(1, 0, 0, 1, 0, -3.97182);animation-play-state:paused" ></path>
<path d="M689.5 -57.68096781949701 L689.5 -30.000000000000004 A15 15 0 0 0 720.5 -30.000000000000004 L720.5 -57.68096781949701 A15 15 0 0 0 689.5 -57.68096781949701" fill="#000" transform="matrix(1,0,0,1,0,0)" opacity="0.803571" style="transform:matrix(1, 0, 0, 1, 0, 0);opacity:0.803571;animation-play-state:paused" ></path>
<path d="M719.5 -300 L719.5 402.5638271930522 A15 15 0 0 0 750.5 402.5638271930522 L750.5 -300" fill="#fff" transform="matrix(1,0,0,1,0,31.57102394104004)" style="transform:matrix(1, 0, 0, 1, 0, 31.571);animation-play-state:paused" ></path>
<path d="M719.5 332.6046416561648 L719.5 372.5638271930522 A15 15 0 0 0 750.5 372.5638271930522 L750.5 332.6046416561648 A15 15 0 0 0 719.5 332.6046416561648" fill="#fff" transform="matrix(1,0,0,1,0,0)" opacity="1" style="transform:matrix(1, 0, 0, 1, 0, 0);animation-play-state:paused" ></path>
<path d="M749.5 -300 L749.5 370.2207555347972 A15 15 0 0 1 780.5 370.2207555347972 L780.5 -300" fill="#fff" transform="matrix(1,0,0,1,0,-4.06962776184082)" style="transform:matrix(1, 0, 0, 1, 0, -4.06963);animation-play-state:paused" ></path>
<path d="M749.5 -44.91887039735688 L749.5 -30.000000000000004 A15 15 0 0 0 780.5 -30.000000000000004 L780.5 -44.91887039735688 A15 15 0 0 0 749.5 -44.91887039735688" fill="#000" transform="matrix(1,0,0,1,0,0)" opacity="0.625" style="transform:matrix(1, 0, 0, 1, 0, 0);opacity:0.625;animation-play-state:paused" ></path>
<path d="M779.5 -300 L779.5 404.1583330899656 A15 15 0 0 0 810.5 404.1583330899656 L810.5 -300" fill="#fff" transform="matrix(1,0,0,1,0,36.623653411865234)" style="transform:matrix(1, 0, 0, 1, 0, 36.6237);animation-play-state:paused" ></path>
<path d="M779.5 350.397608436216 L779.5 374.1583330899656 A15 15 0 0 0 810.5 374.1583330899656 L810.5 350.397608436216 A15 15 0 0 0 779.5 350.397608436216" fill="#fff" transform="matrix(1,0,0,1,0,792.0643310546875)" opacity="0.178571" style="transform:matrix(1, 0, 0, 1, 0, 792.064);opacity:0.178571;animation-play-state:paused" ></path>
<path d="M809.5 -300 L809.5 351.40995184610904 A15 15 0 0 1 840.5 351.40995184610904 L840.5 -300" fill="#fff" transform="matrix(1,0,0,1,0,-37.56625747680664)" style="transform:matrix(1, 0, 0, 1, 0, -37.5663);animation-play-state:paused" ></path>
<path d="M809.5 -56.68729350232812 L809.5 -29.999999999999996 A15 15 0 0 0 840.5 -29.999999999999996 L840.5 -56.68729350232812 A15 15 0 0 0 809.5 -56.68729350232812" fill="#000" transform="matrix(1,0,0,1,0,0)" opacity="1" style="transform:matrix(1, 0, 0, 1, 0, 0);animation-play-state:paused" ></path>
<path d="M839.5 -300 L839.5 381.3104126129776 A15 15 0 0 0 870.5 381.3104126129776 L870.5 -300" fill="#fff" transform="matrix(1,0,0,1,0,22.813879013061523)" style="transform:matrix(1, 0, 0, 1, 0, 22.8139);animation-play-state:paused" ></path>
<path d="M839.5 323.0483841131397 L839.5 351.3104126129776 A15 15 0 0 0 870.5 351.3104126129776 L870.5 323.0483841131397 A15 15 0 0 0 839.5 323.0483841131397" fill="#fff" transform="matrix(1,0,0,1,0,154.3643341064453)" opacity="1" style="transform:matrix(1, 0, 0, 1, 0, 154.364);animation-play-state:paused" ></path>
<path d="M869.5 -300 L869.5 343.4700097490222 A15 15 0 0 1 900.5 343.4700097490222 L900.5 -300" fill="#fff" transform="matrix(1,0,0,1,0,-7.501153945922852)" style="transform:matrix(1, 0, 0, 1, 0, -7.50115);animation-play-state:paused" ></path>
<path d="M869.5 -48.763863898461494 L869.5 -30 A15 15 0 0 0 900.5 -30 L900.5 -48.763863898461494 A15 15 0 0 0 869.5 -48.763863898461494" fill="#000" transform="matrix(1,0,0,1,0,0)" opacity="0.535714" style="transform:matrix(1, 0, 0, 1, 0, 0);opacity:0.535714;animation-play-state:paused" ></path>
<path d="M899.5 -300 L899.5 402.23167852647566 A15 15 0 0 0 930.5 402.23167852647566 L930.5 -300" fill="#fff" transform="matrix(1,0,0,1,0,24.65911293029785)" style="transform:matrix(1, 0, 0, 1, 0, 24.6591);animation-play-state:paused" ></path>
<path d="M899.5 341.6997947048515 L899.5 372.23167852647566 A15 15 0 0 0 930.5 372.23167852647566 L930.5 341.6997947048515 A15 15 0 0 0 899.5 341.6997947048515" fill="#fff" transform="matrix(1,0,0,1,0,549.6324462890625)" opacity="0.178571" style="transform:matrix(1, 0, 0, 1, 0, 549.632);opacity:0.178571;animation-play-state:paused" ></path>
<path d="M929.5 -300 L929.5 361.4624665035242 A15 15 0 0 1 960.5 361.4624665035242 L960.5 -300" fill="#fff" transform="matrix(1,0,0,1,0,-4.450969696044922)" style="transform:matrix(1, 0, 0, 1, 0, -4.45097);animation-play-state:paused" ></path>
<path d="M929.5 -43.27316082034693 L929.5 -30 A15 15 0 0 0 960.5 -30 L960.5 -43.27316082034693 A15 15 0 0 0 929.5 -43.27316082034693" fill="#000" transform="matrix(1,0,0,1,0,0)" opacity="0.0892857" style="transform:matrix(1, 0, 0, 1, 0, 0);opacity:0.0892857;animation-play-state:paused" ></path>
<path d="M959.5 -300 L959.5 414.0487366410252 A15 15 0 0 0 990.5 414.0487366410252 L990.5 -300" fill="#fff" transform="matrix(1,0,0,1,0,0)" style="transform:matrix(1, 0, 0, 1, 0, 0);animation-play-state:paused" ></path>
<path d="M959.5 361.4897723847329 L959.5 384.0487366410252 A15 15 0 0 0 990.5 384.0487366410252 L990.5 361.4897723847329 A15 15 0 0 0 959.5 361.4897723847329" fill="#fff" transform="matrix(1,0,0,1,0,0)" opacity="1" style="transform:matrix(1, 0, 0, 1, 0, 0);animation-play-state:paused" ></path>
<path d="M989.5 -300 L989.5 348.8016595620478 A15 15 0 0 1 1020.5 348.8016595620478 L1020.5 -300" fill="#fff" transform="matrix(1,0,0,1,0,-10.007287979125977)" style="transform:matrix(1, 0, 0, 1, 0, -10.0073);animation-play-state:paused" ></path>
<path d="M989.5 -53.43432037329542 L989.5 -30 A15 15 0 0 0 1020.5 -30 L1020.5 -53.43432037329542 A15 15 0 0 0 989.5 -53.43432037329542" fill="#000" transform="matrix(1,0,0,1,0,0)" opacity="1" style="transform:matrix(1, 0, 0, 1, 0, 0);animation-play-state:paused" ></path>
<path d="M1019.5 -300 L1019.5 394.7310205919893 A15 15 0 0 0 1050.5 394.7310205919893 L1050.5 -300" fill="#fff" transform="matrix(1,0,0,1,0,40.14982604980469)" style="transform:matrix(1, 0, 0, 1, 0, 40.1498);animation-play-state:paused" ></path>
<path d="M1019.5 325.44538776357643 L1019.5 364.7310205919893 A15 15 0 0 0 1050.5 364.7310205919893 L1050.5 325.44538776357643 A15 15 0 0 0 1019.5 325.44538776357643" fill="#fff" transform="matrix(1,0,0,1,0,147.2235565185547)" opacity="1" style="transform:matrix(1, 0, 0, 1, 0, 147.224);animation-play-state:paused" ></path>
<path d="M1049.5 -300 L1049.5 330.60308715941966 A15 15 0 0 1 1080.5 330.60308715941966 L1080.5 -300" fill="#fff" transform="matrix(1,0,0,1,0,-46.86585998535156)" style="transform:matrix(1, 0, 0, 1, 0, -46.8659);animation-play-state:paused" ></path>
<path d="M1049.5 -54.4326368821966 L1049.5 -30 A15 15 0 0 0 1080.5 -30 L1080.5 -54.4326368821966 A15 15 0 0 0 1049.5 -54.4326368821966" fill="#000" transform="matrix(1,0,0,1,0,0)" opacity="0.892857" style="transform:matrix(1, 0, 0, 1, 0, 0);opacity:0.892857;animation-play-state:paused" ></path>
<path d="M1079.5 -300 L1079.5 358.78149279396 A15 15 0 0 0 1110.5 358.78149279396 L1110.5 -300" fill="#fff" transform="matrix(1,0,0,1,0,15.020364761352539)" style="transform:matrix(1, 0, 0, 1, 0, 15.0204);animation-play-state:paused" ></path>
<path d="M1079.5 313.4115689440701 L1079.5 328.78149279396 A15 15 0 0 0 1110.5 328.78149279396 L1110.5 313.4115689440701 A15 15 0 0 0 1079.5 313.4115689440701" fill="#fff" transform="matrix(1,0,0,1,0,416.31231689453125)" opacity="0.714286" style="transform:matrix(1, 0, 0, 1, 0, 416.312);opacity:0.714286;animation-play-state:paused" ></path>
<path d="M1109.5 -300 L1109.5 328.81692291350447 A15 15 0 0 1 1140.5 328.81692291350447 L1140.5 -300" fill="#fff" transform="matrix(1,0,0,1,0,-23.466014862060547)" style="transform:matrix(1, 0, 0, 1, 0, -23.466);animation-play-state:paused" ></path>
<path d="M1109.5 -60.873515466598036 L1109.5 -29.999999999999996 A15 15 0 0 0 1140.5 -29.999999999999996 L1140.5 -60.873515466598036 A15 15 0 0 0 1109.5 -60.873515466598036" fill="#000" transform="matrix(1,0,0,1,0,0)" opacity="0.0892847" style="transform:matrix(1, 0, 0, 1, 0, 0);opacity:0.0892847;animation-play-state:paused" ></path>
<path d="M1139.5 -300 L1139.5 383.83490836937784 A15 15 0 0 0 1170.5 383.83490836937784 L1170.5 -300" fill="#fff" transform="matrix(1,0,0,1,0,3.9530158042907715)" style="transform:matrix(1, 0, 0, 1, 0, 3.95302);animation-play-state:paused" ></path>
<path d="M1139.5 321.52550200871417 L1139.5 353.8349083693779 A15 15 0 0 0 1170.5 353.8349083693779 L1170.5 321.52550200871417 A15 15 0 0 0 1139.5 321.52550200871417" fill="#fff" transform="matrix(1,0,0,1,0,314.29931640625)" opacity="0.892857" style="transform:matrix(1, 0, 0, 1, 0, 314.299);opacity:0.892857;animation-play-state:paused" ></path>
<path d="M1169.5 -300 L1169.5 336.62171968039706 A15 15 0 0 1 1200.5 336.62171968039706 L1200.5 -300" fill="#fff" transform="matrix(1,0,0,1,0,-29.956993103027344)" style="transform:matrix(1, 0, 0, 1, 0, -29.957);animation-play-state:paused" ></path>
<path d="M1169.5 -41.956947541264825 L1169.5 -30.000000000000004 A15 15 0 0 0 1200.5 -30.000000000000004 L1200.5 -41.956947541264825 A15 15 0 0 0 1169.5 -41.956947541264825" fill="#000" transform="matrix(1,0,0,1,0,0)" opacity="0.982142" style="transform:matrix(1, 0, 0, 1, 0, 0);opacity:0.982142;animation-play-state:paused" ></path>
<path d="M1199.5 -300 L1199.5 365.32422156266955 A15 15 0 0 0 1230.5 365.32422156266955 L1230.5 -300" fill="#fff" transform="matrix(1,0,0,1,0,0)" style="transform:matrix(1, 0, 0, 1, 0, 0);animation-play-state:paused" ></path>
<path d="M1199.5 324.85810700365954 L1199.5 335.32422156266955 A15 15 0 0 0 1230.5 335.32422156266955 L1230.5 324.85810700365954 A15 15 0 0 0 1199.5 324.85810700365954" fill="#fff" transform="matrix(1,0,0,1,0,282.46160888671875)" opacity="0.714286" style="transform:matrix(1, 0, 0, 1, 0, 282.462);opacity:0.714286;animation-play-state:paused" ></path>
<path d="M1229.5 -300 L1229.5 348.13956411648326 A15 15 0 0 1 1260.5 348.13956411648326 L1260.5 -300" fill="#fff" transform="matrix(1,0,0,1,0,-30.1882381439209)" style="transform:matrix(1, 0, 0, 1, 0, -30.1882);animation-play-state:paused" ></path>
<path d="M1229.5 -49.21397735299331 L1229.5 -29.999999999999996 A15 15 0 0 0 1260.5 -29.999999999999996 L1260.5 -49.21397735299331 A15 15 0 0 0 1229.5 -49.21397735299331" fill="#000" transform="matrix(1,0,0,1,0,0)" opacity="0.625" style="transform:matrix(1, 0, 0, 1, 0, 0);opacity:0.625;animation-play-state:paused" ></path>
<path d="M1259.5 -300 L1259.5 399.69631513863084 A15 15 0 0 0 1290.5 399.69631513863084 L1290.5 -300" fill="#fff" transform="matrix(1,0,0,1,0,17.307050704956055)" style="transform:matrix(1, 0, 0, 1, 0, 17.3071);animation-play-state:paused" ></path>
<path d="M1259.5 331.9208349263021 L1259.5 369.69631513863084 A15 15 0 0 0 1290.5 369.69631513863084 L1290.5 331.9208349263021 A15 15 0 0 0 1259.5 331.9208349263021" fill="#fff" transform="matrix(1,0,0,1,0,170.52413940429688)" opacity="1" style="transform:matrix(1, 0, 0, 1, 0, 170.524);animation-play-state:paused" ></path>
<path d="M1289.5 -300 L1289.5 360.2823512167189 A15 15 0 0 1 1320.5 360.2823512167189 L1320.5 -300" fill="#fff" transform="matrix(1,0,0,1,0,-34.30961227416992)" style="transform:matrix(1, 0, 0, 1, 0, -34.3096);animation-play-state:paused" ></path>
<path d="M1289.5 -68.50765669418195 L1289.5 -30 A15 15 0 0 0 1320.5 -30 L1320.5 -68.50765669418195 A15 15 0 0 0 1289.5 -68.50765669418195" fill="#000" transform="matrix(1,0,0,1,0,0)" opacity="0.446429" style="transform:matrix(1, 0, 0, 1, 0, 0);opacity:0.446429;animation-play-state:paused" ></path>
<path d="M1319.5 -300 L1319.5 385.5291482726221 A15 15 0 0 0 1350.5 385.5291482726221 L1350.5 -300" fill="#fff" transform="matrix(1,0,0,1,0,20.98458480834961)" style="transform:matrix(1, 0, 0, 1, 0, 20.9846);animation-play-state:paused" ></path>
<path d="M1319.5 319.6628320682688 L1319.5 355.529148272622 A15 15 0 0 0 1350.5 355.529148272622 L1350.5 319.6628320682688 A15 15 0 0 0 1319.5 319.6628320682688" fill="#fff" transform="matrix(1,0,0,1,0,372.0937194824219)" opacity="0.714286" style="transform:matrix(1, 0, 0, 1, 0, 372.094);opacity:0.714286;animation-play-state:paused" ></path>
<path d="M1349.5 -300 L1349.5 352.4970030161302 A15 15 0 0 1 1380.5 352.4970030161302 L1380.5 -300" fill="#fff" transform="matrix(1,0,0,1,0,-12.106460571289062)" style="transform:matrix(1, 0, 0, 1, 0, -12.1065);animation-play-state:paused" ></path>
<path d="M1349.5 -69.5788476915576 L1349.5 -30 A15 15 0 0 0 1380.5 -30 L1380.5 -69.5788476915576 A15 15 0 0 0 1349.5 -69.5788476915576" fill="#000" transform="matrix(1,0,0,1,0,0)" opacity="0.80357" style="transform:matrix(1, 0, 0, 1, 0, 0);opacity:0.80357;animation-play-state:paused" ></path>
<path d="M1379.5 -300 L1379.5 429.7133548751809 A15 15 0 0 0 1410.5 429.7133548751809 L1410.5 -300" fill="#fff" transform="matrix(1,0,0,1,0,37.1143913269043)" style="transform:matrix(1, 0, 0, 1, 0, 37.1144);animation-play-state:paused" ></path>
<path d="M1379.5 376.0513726784499 L1379.5 399.7133548751809 A15 15 0 0 0 1410.5 399.7133548751809 L1410.5 376.0513726784499 A15 15 0 0 0 1379.5 376.0513726784499" fill="#fff" transform="matrix(1,0,0,1,0,480.4079284667969)" opacity="0.535713" style="transform:matrix(1, 0, 0, 1, 0, 480.408);opacity:0.535713;animation-play-state:paused" ></path>
<path d="M1409.5 -300 L1409.5 399.79327892378114 A15 15 0 0 1 1440.5 399.79327892378114 L1440.5 -300" fill="#fff" transform="matrix(1,0,0,1,0,-4.208812713623047)" style="transform:matrix(1, 0, 0, 1, 0, -4.20881);animation-play-state:paused" ></path>
<path d="M1409.5 -51.66393236083408 L1409.5 -29.999999999999996 A15 15 0 0 0 1440.5 -29.999999999999996 L1440.5 -51.66393236083408 A15 15 0 0 0 1409.5 -51.66393236083408" fill="#000" transform="matrix(1,0,0,1,0,0)" opacity="0.267856" style="transform:matrix(1, 0, 0, 1, 0, 0);opacity:0.267856;animation-play-state:paused" ></path></g></mask></defs>


<rect x="0" y="0" width="1440" height="732" fill="url(#ldbk-photon-p0dpmbvle-lg)" mask="url(#ldbk-photon-p0dpmbvle-mask)" style="animation-play-state:paused" ></rect></g></svg>